<svg width="16" height="16" viewBox="0 0 16 16" fill="none" xmlns="http://www.w3.org/2000/svg">
<path d="M8.6419 0.400778C9.70757 0.758388 12.3936 1.7449 13.4593 2.16416C14.1697 2.45395 14.5 2.72524 14.5 3.55761V9.55682C14.5 12.3128 13.0605 13.4104 8.52972 15.8396C8.33653 15.9383 8.14334 16 8 16C7.85666 16 7.65724 15.9445 7.47028 15.8396C3.01438 13.2871 1.5 12.3128 1.5 9.55682V3.55761C1.5 2.72524 1.8303 2.44162 2.54075 2.16416C3.60642 1.75106 6.29243 0.758388 7.3581 0.400778C7.56999 0.339122 7.78188 0.28363 8 0.28363C8.21812 0.28363 8.43001 0.332956 8.6419 0.400778ZM10.686 4.64893L7.08389 10.3214L5.28907 8.10172C5.12704 7.88592 4.97124 7.8181 4.77181 7.8181C4.46021 7.8181 4.22339 8.06472 4.22339 8.37301C4.22339 8.52715 4.28571 8.68746 4.38543 8.8231L6.51055 11.3572C6.69128 11.5915 6.87824 11.684 7.11505 11.684C7.34564 11.684 7.53883 11.5792 7.6884 11.3572L11.5897 5.3025C11.6707 5.16685 11.7579 5.00654 11.7579 4.85857C11.7579 4.55028 11.4774 4.34065 11.1783 4.34065C10.9914 4.34065 10.8169 4.44547 10.686 4.64893Z" fill="url(#paint0_linear_1_15756)"/>
<defs>
<linearGradient id="paint0_linear_1_15756" x1="8" y1="0.28363" x2="8" y2="16" gradientUnits="userSpaceOnUse">
<stop stop-color="#6FA36D"/>
<stop offset="1" stop-color="#3EC039"/>
</linearGradient>
</defs>
</svg>
